<?xml version="1.0" encoding="utf-8"?>
<!-- Generator: Adobe Illustrator 26.0.1, SVG Export Plug-In . SVG Version: 6.00 Build 0)  -->
<svg version="1.1" id="Layer_1" xmlns="http://www.w3.org/2000/svg" xmlns:xlink="http://www.w3.org/1999/xlink" x="0px" y="0px"
	 viewBox="0 0 100 125" style="enable-background:new 0 0 100 125;" xml:space="preserve">
<style type="text/css">
	.st0{fill-rule:evenodd;clip-rule:evenodd;}
</style>
<path class="st0" d="M42.9,9.2l7.1,4.1l7.1-4.1L50,5.1L42.9,9.2L42.9,9.2z M17.8,77.2V69l-7.1-4.1v8.2L17.8,77.2L17.8,77.2z
	 M20.8,69v8.2l7.1-4.1v-8.2L20.8,69L20.8,69z M12.2,62.3l7.1-4.1l7.1,4.1l-7.1,4.1L12.2,62.3L12.2,62.3z M30.9,73.1l0-10.8
	c0-0.5-0.3-1-0.8-1.3l-9.3-5.4V45.2l8.6-4.9l9,5.2l0,10.8c0,0.5,0.3,1,0.8,1.3l9.3,5.4v10.4l-8.6,5L30.9,73.1L30.9,73.1z M51.5,51.3
	v8.2l7.1-4.1v-8.2L51.5,51.3L51.5,51.3z M48.5,59.5v-8.2l-7.1-4.1v8.2L48.5,59.5L48.5,59.5z M39.9,42.9l9.3-5.4
	c0.5-0.3,1.1-0.3,1.5,0l9.3,5.4l9-5.2v-9.9l-9-5.2l-9.3,5.4c-0.5,0.3-1.1,0.3-1.5,0l-9.3-5.4l-9,5.2v9.9L39.9,42.9L39.9,42.9z
	 M61.6,45.5l9-5.2l8.6,4.9v10.4L70,61c-0.5,0.2-0.8,0.8-0.8,1.4v10.8l-9,5.2l-8.6-5V62.9l9.2-5.3c0.5-0.2,0.8-0.8,0.8-1.4L61.6,45.5
	L61.6,45.5z M57.1,44.6L50,40.5l-7.1,4.1l7.1,4.1L57.1,44.6L57.1,44.6z M48.5,94.9v-8.2l-7.1-4.1v8.2L48.5,94.9L48.5,94.9z
	 M51.5,86.8v8.2l7.1-4.1v-8.2L51.5,86.8L51.5,86.8z M42.9,80.1l7.1,4.1l7.1-4.1L50,76L42.9,80.1L42.9,80.1z M79.2,77.2V69l-7.1-4.1
	v8.2L79.2,77.2L79.2,77.2z M82.2,69v8.2l7.1-4.1v-8.2L82.2,69L82.2,69z M73.6,62.3l7.1,4.1l7.1-4.1l-7.1-4.1L73.6,62.3L73.6,62.3z
	 M80.7,31l7.1-4.1l-7.1-4.1l-7.1,4.1L80.7,31L80.7,31z M89.3,29.5v8.2l-7.1,4.1v-8.2L89.3,29.5L89.3,29.5z M79.2,41.7v-8.2l-7.1-4.1
	v8.2L79.2,41.7L79.2,41.7z M12.2,26.9l7.1,4.1l7.1-4.1l-7.1-4.1L12.2,26.9L12.2,26.9z M17.8,33.6v8.2l-7.1-4.1v-8.2L17.8,33.6
	L17.8,33.6z M27.9,29.5l-7.1,4.1v8.2l7.1-4.1V29.5L27.9,29.5z M48.5,24l-7.1-4.1v-8.2l7.1,4.1V24L48.5,24z M51.5,15.8l7.1-4.1v8.2
	L51.5,24V15.8z"/>
</svg>
