<?xml version="1.0" encoding="utf-8"?>
<!-- Generator: Adobe Illustrator 26.0.1, SVG Export Plug-In . SVG Version: 6.00 Build 0)  -->
<svg version="1.1" id="Layer_1" xmlns="http://www.w3.org/2000/svg" xmlns:xlink="http://www.w3.org/1999/xlink" x="0px" y="0px"
	 viewBox="0 0 100 125" style="enable-background:new 0 0 100 125;" xml:space="preserve">
<g>
	<circle cx="50" cy="51.9" r="4.7"/>
	<path d="M50,41.2c-4.2,0-7.5,3.5-7.6,7.9c-1,0.4-1.8,1.5-1.8,2.7c0,1.5,1.2,2.8,2.7,2.9c0.1,0.2,0.3,0.4,0.5,0.4h0.5
		c0.3,0,0.6-0.3,0.6-0.6V49c0-0.3-0.3-0.6-0.6-0.6h-0.5c-0.3,0-0.5,0.2-0.6,0.5c-0.1,0-0.2,0-0.3,0c0.2-3.7,3.2-6.7,7-6.7
		s6.8,3,7,6.7c-0.1,0-0.2,0-0.2,0c0-0.3-0.3-0.5-0.6-0.5h-0.5c-0.3,0-0.6,0.3-0.6,0.6v5.6c0,0.3,0.3,0.6,0.6,0.6h0.5
		c0.3,0,0.5-0.2,0.5-0.4l0.4-0.1c0.3,1.9,0.1,2.6-0.4,3c-0.5,0.4-3.5,0.5-3.8,0.5c-0.1-0.2-0.3-0.4-0.6-0.4l-2.2-0.2
		c-0.3,0-0.6,0.3-0.6,0.6v0.7c0,0.3,0.3,0.6,0.6,0.6l2.2-0.2c0.2,0,0.4-0.2,0.5-0.4c0.3,0,3.6,0,4.3-0.7c0.9-0.9,0.7-1.3,0.6-3.6
		c1-0.5,1.6-1.5,1.6-2.6c0-1.2-0.7-2.2-1.8-2.7C57.5,44.7,54.2,41.2,50,41.2z M43.3,49.4v4.7c-1.2-0.1-2.1-1.1-2.1-2.4
		C41.2,50.6,42.1,49.6,43.3,49.4z M58.8,51.8c0,1.2-0.9,2.2-2.1,2.4v-4.7C57.9,49.6,58.8,50.6,58.8,51.8z"/>
	<path d="M84.5,50.1c1.9,0,3.5-1.6,3.5-3.5s-1.6-3.5-3.5-3.5S81,44.7,81,46.6S82.6,50.1,84.5,50.1z M84.5,43.7
		c1.6,0,2.9,1.3,2.9,2.9s-1.3,2.9-2.9,2.9s-2.9-1.3-2.9-2.9C81.6,45,82.9,43.7,84.5,43.7z"/>
	<path d="M87,50.4c-0.7,0.6-1.5,0.9-2.5,0.9s-1.8-0.3-2.5-0.9c-1.4,0.5-3.4,0.9-3.6,2.3c-0.4,2.5,3.4,4,6.1,4s6.5-1.5,6.1-4
		C90.3,51.3,88.4,50.8,87,50.4z M89.6,54.3c-1,1.2-3.4,1.9-5.1,1.9s-4-0.7-5.1-1.9c-0.4-0.5-0.6-1-0.5-1.5c0.2-1,1.6-1.4,2.8-1.8
		c0,0,0.1,0,0.1,0c0.8,0.6,1.7,0.9,2.6,0.9s1.8-0.3,2.6-0.9c0,0,0.1,0,0.1,0c1.2,0.4,2.7,0.8,2.8,1.8C90.1,53.4,90,53.8,89.6,54.3z"
		/>
	<path d="M84.5,39.8c-5.6,0-10.2,4.4-10.5,10h-9L58,37.6l4.5-7.8c1.3,0.6,2.8,1,4.4,1c5.8,0,10.5-4.7,10.5-10.5S72.6,9.7,66.8,9.7
		c-5.8,0-10.5,4.7-10.5,10.5c0,3.9,2.1,7.2,5.2,9.1L57.1,37H42.9l-4.6-8c3.1-1.8,5.2-5.2,5.2-9.1c0-5.8-4.7-10.5-10.5-10.5
		c-5.8,0-10.5,4.7-10.5,10.5c0,5.8,4.7,10.5,10.5,10.5c1.6,0,3-0.4,4.4-1l4.7,8L35,49.8h-9c-0.3-5.6-4.9-10-10.5-10
		C9.7,39.8,5,44.5,5,50.3c0,5.8,4.7,10.5,10.5,10.5c5.6,0,10.2-4.4,10.5-10h9L42.1,63L37.5,71c-1.6-0.9-3.4-1.5-5.3-1.5
		c-5.8,0-10.5,4.7-10.5,10.5s4.7,10.5,10.5,10.5c5.8,0,10.5-4.7,10.5-10.5c0-3.5-1.7-6.6-4.3-8.5l4.6-8h14.2l4.5,7.8
		c-2.6,1.9-4.3,5-4.3,8.4c0,5.8,4.7,10.5,10.5,10.5c5.8,0,10.5-4.7,10.5-10.5c0-5.8-4.7-10.5-10.5-10.5c-2,0-3.8,0.6-5.4,1.5L58,63
		L65,50.8h9c0.3,5.6,4.9,10,10.5,10c5.8,0,10.5-4.7,10.5-10.5C95,44.5,90.3,39.8,84.5,39.8z M57.1,20.2c0-5.4,4.4-9.7,9.7-9.7
		c5.4,0,9.7,4.4,9.7,9.7c0,5.4-4.4,9.7-9.7,9.7C61.5,29.9,57.1,25.6,57.1,20.2z M33,29.7c-5.4,0-9.7-4.4-9.7-9.7
		c0-5.4,4.4-9.7,9.7-9.7c5.4,0,9.7,4.4,9.7,9.7S38.4,29.7,33,29.7z M15.5,60c-5.4,0-9.7-4.4-9.7-9.7c0-5.4,4.4-9.7,9.7-9.7
		s9.7,4.4,9.7,9.7C25.2,55.7,20.9,60,15.5,60z M41.8,80c0,5.4-4.4,9.7-9.7,9.7s-9.7-4.4-9.7-9.7s4.4-9.7,9.7-9.7S41.8,74.6,41.8,80z
		 M67.9,70.1c5.4,0,9.7,4.4,9.7,9.7s-4.4,9.7-9.7,9.7c-5.4,0-9.7-4.4-9.7-9.7C58.2,74.4,62.5,70.1,67.9,70.1z M57,62.5H43l-7-12.2
		l7-12.2H57l7,12.2L57,62.5z M84.5,60c-5.4,0-9.7-4.4-9.7-9.7c0-5.4,4.4-9.7,9.7-9.7s9.7,4.4,9.7,9.7S89.9,60,84.5,60z"/>
	<path d="M33,19.8c1.9,0,3.5-1.6,3.5-3.5c0-1.9-1.6-3.5-3.5-3.5c-1.9,0-3.5,1.6-3.5,3.5C29.5,18.2,31.1,19.8,33,19.8z M33,13.4
		c1.6,0,2.9,1.3,2.9,2.9s-1.3,2.9-2.9,2.9s-2.9-1.3-2.9-2.9C30.1,14.7,31.4,13.4,33,13.4z"/>
	<path d="M35.5,20.1C34.8,20.7,34,21,33,21c-1,0-1.8-0.3-2.5-0.9c-1.4,0.5-3.4,0.9-3.6,2.4c-0.4,2.5,3.4,4,6.1,4
		c2.7,0,6.5-1.5,6.1-4C38.9,21,36.9,20.5,35.5,20.1z M38.1,24c-1,1.2-3.4,1.9-5.1,1.9c-1.7,0-4-0.7-5.1-1.9c-0.4-0.5-0.6-1-0.5-1.5
		c0.2-1,1.6-1.4,2.8-1.8c0,0,0.1,0,0.1,0c0.8,0.6,1.7,0.9,2.6,0.9c0.9,0,1.8-0.3,2.6-0.9c0,0,0.1,0,0.1,0c1.2,0.4,2.7,0.8,2.8,1.8
		C38.6,23.1,38.5,23.6,38.1,24z"/>
	<path d="M67.9,79.6c1.9,0,3.5-1.6,3.5-3.5s-1.6-3.5-3.5-3.5c-1.9,0-3.5,1.6-3.5,3.5S66,79.6,67.9,79.6z M67.9,73.2
		c1.6,0,2.9,1.3,2.9,2.9s-1.3,2.9-2.9,2.9c-1.6,0-2.9-1.3-2.9-2.9C64.9,74.5,66.3,73.2,67.9,73.2z"/>
	<path d="M67.9,86.2c2.7,0,6.5-1.5,6.1-4c-0.2-1.4-2.2-1.9-3.6-2.3c-0.7,0.6-1.5,0.9-2.5,0.9c-1,0-1.8-0.3-2.5-0.9
		c-1.4,0.5-3.4,0.9-3.6,2.3C61.4,84.8,65.2,86.2,67.9,86.2z M62.3,82.3c0.2-1,1.6-1.4,2.8-1.8c0,0,0.1,0,0.1,0
		c0.8,0.6,1.7,0.9,2.6,0.9s1.8-0.3,2.6-0.9c0,0,0.1,0,0.1,0c1.2,0.4,2.7,0.8,2.8,1.8c0.1,0.5-0.1,1-0.5,1.5c-1,1.2-3.4,1.9-5.1,1.9
		c-1.7,0-4-0.7-5.1-1.9C62.4,83.4,62.2,82.9,62.3,82.3z"/>
	<path d="M66.8,20c1.9,0,3.5-1.6,3.5-3.5c0-1.9-1.6-3.5-3.5-3.5c-1.9,0-3.5,1.6-3.5,3.5C63.4,18.4,64.9,20,66.8,20z M66.8,13.6
		c1.6,0,2.9,1.3,2.9,2.9c0,1.6-1.3,2.9-2.9,2.9c-1.6,0-2.9-1.3-2.9-2.9C63.9,14.9,65.2,13.6,66.8,13.6z"/>
	<path d="M72.9,22.6c-0.2-1.4-2.2-1.9-3.6-2.3c-0.7,0.6-1.5,0.9-2.5,0.9c-1,0-1.8-0.3-2.5-0.9c-1.4,0.5-3.4,0.9-3.6,2.3
		c-0.4,2.5,3.4,4,6.1,4C69.6,26.6,73.3,25.2,72.9,22.6z M61.3,22.7c0.2-1,1.6-1.4,2.8-1.8c0,0,0.1,0,0.1,0c0.8,0.6,1.7,0.9,2.6,0.9
		c0.9,0,1.8-0.3,2.6-0.9c0,0,0.1,0,0.1,0c1.2,0.4,2.7,0.8,2.8,1.8c0.1,0.5-0.1,1-0.5,1.5c-1,1.2-3.4,1.9-5.1,1.9
		c-1.7,0-4-0.7-5.1-1.9C61.4,23.7,61.2,23.3,61.3,22.7z"/>
	<path d="M28.6,76.3c0,1.9,1.6,3.5,3.5,3.5c1.9,0,3.5-1.6,3.5-3.5s-1.6-3.5-3.5-3.5C30.2,72.9,28.6,74.4,28.6,76.3z M35.1,76.3
		c0,1.6-1.3,2.9-2.9,2.9c-1.6,0-2.9-1.3-2.9-2.9c0-1.6,1.3-2.9,2.9-2.9S35.1,74.7,35.1,76.3z"/>
	<path d="M32.1,81c-1,0-1.8-0.3-2.5-0.9c-1.4,0.5-3.4,0.9-3.6,2.3c-0.4,2.5,3.4,4,6.1,4s6.5-1.5,6.1-4C38,81,36,80.5,34.6,80.1
		C33.9,80.7,33.1,81,32.1,81z M34.9,80.7c1.2,0.4,2.7,0.8,2.8,1.8c0.1,0.5-0.1,1-0.5,1.5c-1,1.2-3.4,1.9-5.1,1.9s-4-0.7-5.1-1.9
		c-0.4-0.5-0.6-1-0.5-1.5c0.2-1,1.6-1.4,2.8-1.8c0,0,0.1,0,0.1,0c0.8,0.6,1.7,0.9,2.6,0.9s1.8-0.3,2.6-0.9
		C34.8,80.7,34.8,80.7,34.9,80.7z"/>
	<path d="M15.5,50.1c1.9,0,3.5-1.6,3.5-3.5s-1.6-3.5-3.5-3.5S12,44.7,12,46.6S13.6,50.1,15.5,50.1z M15.5,43.7
		c1.6,0,2.9,1.3,2.9,2.9s-1.3,2.9-2.9,2.9c-1.6,0-2.9-1.3-2.9-2.9C12.6,45,13.9,43.7,15.5,43.7z"/>
	<path d="M18,50.4c-0.7,0.6-1.5,0.9-2.5,0.9s-1.8-0.3-2.5-0.9c-1.4,0.5-3.4,0.9-3.6,2.3c-0.4,2.5,3.4,4,6.1,4s6.5-1.5,6.1-4
		C21.4,51.3,19.4,50.8,18,50.4z M20.6,54.3c-1,1.2-3.4,1.9-5.1,1.9c-1.7,0-4-0.7-5.1-1.9c-0.4-0.5-0.6-1-0.5-1.5
		c0.2-1,1.6-1.4,2.8-1.8c0,0,0.1,0,0.1,0c0.8,0.6,1.7,0.9,2.6,0.9c0.9,0,1.8-0.3,2.6-0.9c0,0,0.1,0,0.1,0c1.2,0.4,2.7,0.8,2.8,1.8
		C21.1,53.4,21,53.8,20.6,54.3z"/>
</g>
</svg>
