<?xml version="1.0" encoding="utf-8"?>
<!-- Generator: Adobe Illustrator 26.0.1, SVG Export Plug-In . SVG Version: 6.00 Build 0)  -->
<svg version="1.1" id="Layer_1" xmlns="http://www.w3.org/2000/svg" xmlns:xlink="http://www.w3.org/1999/xlink" x="0px" y="0px"
	 viewBox="0 0 64 80" style="enable-background:new 0 0 64 80;" xml:space="preserve">
<path d="M55.1,31.4h2.4c0.6,0,1-0.5,1-1c0-0.5-0.4-1-1-1h-4.8c-0.6,0-1,0.4-1,1v4.8c0,0.6,0.4,1,1,1c0.5,0,1-0.4,1-1v-2.4
	c5.7,5.8,5.6,15.1-0.1,20.8c-14.4,13.3-34.2-6.5-20.9-20.9C47.7,16.3,25.4-6.1,8.9,9c-6.5,6.5-6.5,17-0.1,23.6H6.5c-0.6,0-1,0.5-1,1
	c0,0.5,0.4,1,1,1h4.8c0.6,0,1-0.4,1-1v-4.8c0-0.6-0.5-1-1-1c-0.5,0-1,0.4-1,1v2.4c-5.7-5.8-5.6-15.1,0.1-20.8
	c14.4-13.3,34.2,6.5,20.9,20.9c-6.5,6.6-6.5,17.2,0,23.7C47.6,70,70,47.9,55.1,31.4z"/>
<path d="M28.1,29.3l1.1-1.1c0.7-0.7,0.7-1.8,0-2.5c0,0,0,0,0,0L28.6,25c0.6-1.2,1-2.5,1-3.9l0.8-0.2c1-0.3,1.5-1.2,1.3-2.2l-0.4-1.5
	c-0.3-0.9-1.2-1.5-2.2-1.3l-0.8,0.2c-0.7-1.2-1.7-2.1-2.8-2.9l0.2-0.8c0.2-1-0.3-1.9-1.3-2.2l-1.5-0.4c-1-0.2-1.9,0.3-2.2,1.3
	L20.5,12c-1.4,0-2.7,0.4-3.9,1L16,12.4c-0.7-0.7-1.8-0.7-2.5,0c0,0,0,0,0,0l-1.1,1.1c-0.7,0.7-0.7,1.8,0,2.5c0,0,0,0,0,0l0.6,0.6
	c-0.6,1.2-1,2.5-1,3.9l-0.8,0.2C10.2,21,9.6,22,9.8,23l0.4,1.5c0.3,1,1.2,1.5,2.2,1.3l0.8-0.2c0.7,1.2,1.7,2.1,2.9,2.9l-0.2,0.8
	c-0.3,1,0.3,1.9,1.3,2.2l1.5,0.4c1,0.2,1.9-0.3,2.2-1.3l0.2-0.8c1.4,0,2.7-0.4,3.9-1l0.6,0.6C26.3,30,27.4,30,28.1,29.3z M24.3,24.3
	c-4.7,4.5-11.5-2.3-7-7C22,12.9,28.8,19.6,24.3,24.3L24.3,24.3z"/>
<path d="M18.7,18.8c-2.7,2.8,1.4,6.9,4.2,4.2c1.1-1.2,1.1-3,0-4.2C21.7,17.6,19.9,17.6,18.7,18.8z"/>
<path d="M35.8,34.7l-1.1,1.1c-0.7,0.7-0.7,1.8,0,2.5c0,0,0,0,0,0l0.6,0.6c-0.6,1.2-1,2.5-1,3.9l-0.8,0.2c-1,0.3-1.5,1.2-1.3,2.2
	l0.4,1.5c0.3,0.9,1.2,1.5,2.2,1.3l0.8-0.2c0.7,1.2,1.7,2.1,2.8,2.9c-0.3,0.7-0.3,1.5,0,2.2c0.4,0.9,1.8,1,2.6,1.2
	c1,0.3,1.9-0.3,2.2-1.3l0.2-0.8c1.4,0,2.7-0.4,3.9-1l0.6,0.6c0.7,0.7,1.8,0.7,2.5,0c0,0,0,0,0,0l1.1-1.1c0.7-0.7,0.7-1.8,0-2.5
	c0,0,0,0,0,0L51,47.4c0.6-1.2,1-2.5,1-3.9l0.8-0.2c1-0.3,1.5-1.2,1.3-2.2l-0.4-1.5c-0.3-1-1.2-1.5-2.2-1.3l-0.8,0.2
	c-0.7-1.2-1.7-2.1-2.9-2.9c0.3-0.7,0.4-1.5,0-2.2c-0.2-0.4-0.6-0.7-1.1-0.8c-0.8-0.2-2.1-0.8-2.9-0.2c-0.7,0.3-0.9,1.2-1,1.9
	c-1.4,0-2.7,0.4-3.9,1l-0.6-0.6C37.6,34,36.5,34,35.8,34.7z M39.6,39.7c4.7-4.5,11.5,2.3,7,7C41.9,51.1,35.1,44.4,39.6,39.7z"/>
<path d="M45.2,45.2c1.1-1.2,1.1-3,0-4.2c-1.1-1.1-3-1.1-4.1,0C38.3,43.9,42.4,47.9,45.2,45.2z"/>
</svg>
