<?xml version="1.0" encoding="utf-8"?>
<!-- Generator: Adobe Illustrator 26.0.1, SVG Export Plug-In . SVG Version: 6.00 Build 0)  -->
<svg version="1.1" id="Layer_1" xmlns="http://www.w3.org/2000/svg" xmlns:xlink="http://www.w3.org/1999/xlink" x="0px" y="0px"
	 viewBox="0 0 128 160" style="enable-background:new 0 0 128 160;" xml:space="preserve">
<style type="text/css">
	.st0{display:none;}
	.st1{display:inline;}
	.st2{fill:none;stroke:#000000;stroke-width:0.1;stroke-miterlimit:10;}
	.st3{fill:none;stroke:#000000;stroke-width:3;stroke-linecap:round;stroke-miterlimit:10;}
	.st4{fill:#020202;}
</style>
<g class="st0">
	<g class="st1">
		<rect class="st2" width="128" height="128"/>
		<line class="st2" x1="0" y1="124" x2="128" y2="124"/>
		<line class="st2" x1="0" y1="120" x2="128" y2="120"/>
		<line class="st2" x1="0" y1="116" x2="128" y2="116"/>
		<line class="st2" x1="0" y1="112" x2="128" y2="112"/>
		<line class="st2" x1="0" y1="108" x2="128" y2="108"/>
		<line class="st2" x1="0" y1="104" x2="128" y2="104"/>
		<line class="st2" x1="0" y1="100" x2="128" y2="100"/>
		<line class="st2" x1="0" y1="96" x2="128" y2="96"/>
		<line class="st2" x1="0" y1="92" x2="128" y2="92"/>
		<line class="st2" x1="0" y1="88" x2="128" y2="88"/>
		<line class="st2" x1="0" y1="84" x2="128" y2="84"/>
		<line class="st2" x1="0" y1="80" x2="128" y2="80"/>
		<line class="st2" x1="0" y1="76" x2="128" y2="76"/>
		<line class="st2" x1="0" y1="72" x2="128" y2="72"/>
		<line class="st2" x1="0" y1="68" x2="128" y2="68"/>
		<line class="st2" x1="0" y1="64" x2="128" y2="64"/>
		<line class="st2" x1="0" y1="60" x2="128" y2="60"/>
		<line class="st2" x1="0" y1="56" x2="128" y2="56"/>
		<line class="st2" x1="0" y1="52" x2="128" y2="52"/>
		<line class="st2" x1="0" y1="48" x2="128" y2="48"/>
		<line class="st2" x1="0" y1="44" x2="128" y2="44"/>
		<line class="st2" x1="0" y1="40" x2="128" y2="40"/>
		<line class="st2" x1="0" y1="36" x2="128" y2="36"/>
		<line class="st2" x1="0" y1="32" x2="128" y2="32"/>
		<line class="st2" x1="0" y1="28" x2="128" y2="28"/>
		<line class="st2" x1="0" y1="24" x2="128" y2="24"/>
		<line class="st2" x1="0" y1="20" x2="128" y2="20"/>
		<line class="st2" x1="0" y1="16" x2="128" y2="16"/>
		<line class="st2" x1="0" y1="12" x2="128" y2="12"/>
		<line class="st2" x1="0" y1="8" x2="128" y2="8"/>
		<line class="st2" x1="0" y1="4" x2="128" y2="4"/>
		<line class="st2" x1="124" y1="0" x2="124" y2="128"/>
		<line class="st2" x1="120" y1="0" x2="120" y2="128"/>
		<line class="st2" x1="116" y1="0" x2="116" y2="128"/>
		<line class="st2" x1="112" y1="0" x2="112" y2="128"/>
		<line class="st2" x1="108" y1="0" x2="108" y2="128"/>
		<line class="st2" x1="104" y1="0" x2="104" y2="128"/>
		<line class="st2" x1="100" y1="0" x2="100" y2="128"/>
		<line class="st2" x1="96" y1="0" x2="96" y2="128"/>
		<line class="st2" x1="92" y1="0" x2="92" y2="128"/>
		<line class="st2" x1="88" y1="0" x2="88" y2="128"/>
		<line class="st2" x1="84" y1="0" x2="84" y2="128"/>
		<line class="st2" x1="80" y1="0" x2="80" y2="128"/>
		<line class="st2" x1="76" y1="0" x2="76" y2="128"/>
		<line class="st2" x1="72" y1="0" x2="72" y2="128"/>
		<line class="st2" x1="68" y1="0" x2="68" y2="128"/>
		<line class="st2" x1="64" y1="0" x2="64" y2="128"/>
		<line class="st2" x1="60" y1="0" x2="60" y2="128"/>
		<line class="st2" x1="56" y1="0" x2="56" y2="128"/>
		<line class="st2" x1="52" y1="0" x2="52" y2="128"/>
		<line class="st2" x1="48" y1="0" x2="48" y2="128"/>
		<line class="st2" x1="44" y1="0" x2="44" y2="128"/>
		<line class="st2" x1="40" y1="0" x2="40" y2="128"/>
		<line class="st2" x1="36" y1="0" x2="36" y2="128"/>
		<line class="st2" x1="32" y1="0" x2="32" y2="128"/>
		<line class="st2" x1="28" y1="0" x2="28" y2="128"/>
		<line class="st2" x1="24" y1="0" x2="24" y2="128"/>
		<line class="st2" x1="20" y1="0" x2="20" y2="128"/>
		<line class="st2" x1="16" y1="0" x2="16" y2="128"/>
		<line class="st2" x1="12" y1="0" x2="12" y2="128"/>
		<line class="st2" x1="8" y1="0" x2="8" y2="128"/>
		<line class="st2" x1="4" y1="0" x2="4" y2="128"/>
	</g>
</g>
<g>
	<g>
		<g>
			<path class="st3" d="M87.4,32.3c0.8-0.1,3.6-0.2,5.8,1.8c2.5,2.3,2.3,5.7,2.3,6.3"/>
			<path class="st3" d="M86.9,23.8c1.4-0.1,7.8-0.7,12.6,3.8c5.1,4.9,4.5,11.9,4.4,13.1"/>
			<path class="st3" d="M86,16.5c1.9-0.3,11.7-1.4,19,5.4c7.8,7.3,6.5,18.2,6.3,19.9"/>
		</g>
		<g>
			<g>
				<path class="st4" d="M86.4,94.1V105H46.6V45.4h39.8v13.8h3.1V43.4c0-2.6-2.1-4.8-4.8-4.8H48.3c-2.6,0-4.8,2.1-4.8,4.8V107
					c0,2.6,2.1,4.8,4.8,4.8h36.5c2.6,0,4.8-2.1,4.8-4.8V94.1H86.4L86.4,94.1z M60.1,41.6H71c0.2,0,0.4,0.2,0.4,0.4s-0.2,0.4-0.4,0.4
					H60.1c-0.2,0-0.4-0.2-0.4-0.4C59.7,41.8,59.9,41.6,60.1,41.6z M57,41.5c0.3,0,0.6,0.3,0.6,0.6s-0.3,0.6-0.6,0.6
					s-0.6-0.3-0.6-0.6S56.7,41.5,57,41.5z M65.5,110.2c-0.9,0-1.7-0.7-1.7-1.7c0-0.9,0.7-1.7,1.7-1.7s1.7,0.7,1.7,1.7
					S66.5,110.2,65.5,110.2z"/>
				<path class="st4" d="M94.3,57.8H82.5c-2.1,0-3.7,1.7-3.7,3.7l0,0c0,2.1,1.7,3.7,3.7,3.7h11.8c1.5,0,2.7-1.2,2.7-2.7v-2
					C97,59,95.8,57.8,94.3,57.8z"/>
				<path class="st4" d="M94.3,67.7H82.5c-2.1,0-3.7,1.7-3.7,3.7l0,0c0,2.1,1.7,3.7,3.7,3.7h11.8c1.5,0,2.7-1.2,2.7-2.7v-2
					C97,69,95.8,67.7,94.3,67.7z"/>
				<path class="st4" d="M94.3,77.8H82.5c-2.1,0-3.7,1.7-3.7,3.7l0,0c0,2.1,1.7,3.7,3.7,3.7h11.8c1.5,0,2.7-1.2,2.7-2.7v-2
					C97,79,95.8,77.8,94.3,77.8z"/>
				<path class="st4" d="M94.3,87.9H82.5c-2.1,0-3.7,1.7-3.7,3.7l0,0c0,2.1,1.7,3.7,3.7,3.7h11.8c1.5,0,2.7-1.2,2.7-2.7v-2
					C97,89.1,95.8,87.9,94.3,87.9z"/>
				<path class="st4" d="M45.2,101.1H30.4c-7.4,0-13.6-8.7-13.9-16.1c0-0.2,0-0.4,0-0.6s0-0.4,0-0.6c0.2-6.8,4.6-12.7,10.9-15.3
					c0.6-0.2,1.2-0.5,1.8-0.7c3-1.2,5.8-2.8,8.4-4.8l14.2-10.8c1.3-1.2,3-1.6,4.1-0.9c1,0.5,1.3,1.7,1.4,2.1
					c0.5,1.9-0.3,3.6-0.7,4.4c-2.3,4.7-10.3,11-11.1,11.6"/>
			</g>
		</g>
	</g>
</g>
</svg>
