<?xml version="1.0" encoding="utf-8"?>
<!-- Generator: Adobe Illustrator 26.0.1, SVG Export Plug-In . SVG Version: 6.00 Build 0)  -->
<svg version="1.1" id="Layer_1" xmlns="http://www.w3.org/2000/svg" xmlns:xlink="http://www.w3.org/1999/xlink" x="0px" y="0px"
	 viewBox="0 0 90 112.5" style="enable-background:new 0 0 90 112.5;" xml:space="preserve">
<style type="text/css">
	.st0{fill-rule:evenodd;clip-rule:evenodd;}
</style>
<path class="st0" d="M40.4,12.6c3.5,1.2,7.4,3.6,10.6,7c3.7,4.1,6.3,9.6,6.2,16.7c0,0.2,0,0.3,0.1,0.5l4.7,9.8
	c0.3,0.6,0.3,1,0.2,1.3c-0.1,0.3-0.2,0.4-0.5,0.5l-4.4,1.7c-0.4,0.2-0.7,0.6-0.7,1.1l0.2,2.9c0.1,1.8-0.4,2-1.9,2.1l-5.1,0.4
	c-0.6,0-1,0.5-1,1.1c0,1.7,0.8,2.5,2.1,3.6c0.8,0.6,2,1,3.2,1.2c1.1,0.1,1.2,0.6,1,1.7l-0.4,2.6c-0.2,1.1-1.1,1.4-1.9,1.6
	c-1.2,0.4-3,0.7-5.1,0.1l-14.3-4.2c-2.6-0.7-3.2-1.9-4.8-4.1c-1.2-1.6-2.2-0.2-1.7,0.8c1.2,2.8,2.7,4.9,5.8,5.8L43,69.8
	c1.3,0.4,2.5,1.4,2,3.6L44.4,76c-0.3,1.6-0.9,2.8-3.7,2.8H20.9c-2.2,0-3.4-1.2-3-3.2l0.9-5.4c1-5.9,0.1-11.1-4.5-15.7
	C6,46,4.5,33.8,10.2,23.9c4.3-7.5,11.9-12.1,20.2-12.6C33.8,11,37.6,11.7,40.4,12.6z"/>
<path class="st0" d="M64.6,51.3c-1.4,0-2.2,1.4-1.5,2.5c2.1,3.2,2.1,7.2,0,10.5c-0.5,0.8-0.2,1.8,0.7,2.2c0.9,0.5,2,0.2,2.5-0.6
	c2.7-4.2,2.7-9.5,0-13.7C65.9,51.6,65.2,51.3,64.6,51.3z"/>
<path class="st0" d="M67.5,44.3c-1.6,0-2.4,1.8-1.3,2.8c3.5,3.2,5.5,7.5,5.5,11.9c0,4.5-2,8.8-5.5,11.9c-0.8,0.6-0.8,1.7-0.1,2.4
	c0.7,0.7,1.9,0.6,2.6-0.1c4.2-3.8,6.5-8.9,6.5-14.2c0-5.3-2.3-10.5-6.5-14.2C68.5,44.5,68,44.3,67.5,44.3z"/>
<path class="st0" d="M73.1,39.2c-1.6,0-2.4,1.8-1.2,2.8c5,4.5,7.8,10.6,7.8,17c0,6.4-2.8,12.5-7.8,17c-0.7,0.6-0.7,1.7,0,2.3
	c0.7,0.6,1.9,0.6,2.6,0c5.7-5.1,8.8-12.1,8.8-19.3c0-7.2-3.2-14.2-8.8-19.3C74,39.4,73.6,39.2,73.1,39.2z"/>
</svg>
