<?xml version="1.0" encoding="utf-8"?>
<!-- Generator: Adobe Illustrator 26.0.1, SVG Export Plug-In . SVG Version: 6.00 Build 0)  -->
<svg version="1.1" id="Layer_1" xmlns="http://www.w3.org/2000/svg" xmlns:xlink="http://www.w3.org/1999/xlink" x="0px" y="0px"
	 viewBox="0 0 100 125" style="enable-background:new 0 0 100 125;" xml:space="preserve">
<path d="M64.6,40.9V31c0-0.6-0.4-1-1-1s-1,0.4-1,1v8.9H20.7V31c0-0.6-0.4-1-1-1s-1,0.4-1,1v9.9c0,0.6,0.4,1,1,1c0,0,0,0,0,0h43.8
	C64.1,41.9,64.6,41.4,64.6,40.9C64.6,40.9,64.6,40.9,64.6,40.9z"/>
<path d="M77.1,72l7.6-7.6c0.4-0.4,0.4-1,0-1.4c-0.1-0.1-0.3-0.2-0.5-0.3l-3.9-0.9V28.5c0-0.6-0.4-1-1-1c0,0,0,0,0,0h-9.1v-9.7
	c0-0.6-0.4-1-1-1c0,0,0,0,0,0h-55c-0.6,0-1,0.4-1,1c0,0,0,0,0,0V64c0,0.6,0.4,1,1,1c0,0,0,0,0,0H23v10.7c0,0.6,0.4,1,1,1
	c0,0,0,0,0,0h42.7l0.7,2.9c0.1,0.5,0.7,0.9,1.2,0.8c0.2,0,0.4-0.1,0.5-0.3l6.6-6.6l9.5,9.5c0.4,0.4,1,0.4,1.4,0c0.4-0.4,0.4-1,0-1.4
	L77.1,72z M78.3,29.5v32l-8.1-1.9V29.5H78.3z M68.2,18.8v5.8h-53v-5.8H68.2z M15.2,26.6h53v32.5l-4.2-1c-0.5-0.1-1.1,0.2-1.2,0.8
	c0,0.1,0,0.3,0,0.4l0.8,3.7H15.2V26.6z M25,74.6V65H64l2.2,9.7H25z M68.9,77.4L65,60.4L82,64.3l-7,7l0,0l0,0L68.9,77.4z"/>
</svg>
